<?xml version="1.0" standalone="no"?>
<!DOCTYPE svg PUBLIC "-//W3C//DTD SVG 20010904//EN"
 "http://www.w3.org/TR/2001/REC-SVG-20010904/DTD/svg10.dtd">
<svg version="1.0" xmlns="http://www.w3.org/2000/svg"
 width="128.000000pt" height="128.000000pt" viewBox="0 0 128.000000 128.000000"
 preserveAspectRatio="xMidYMid meet">
<metadata>
Created by potrace 1.11, written by Peter Selinger 2001-2013
</metadata>
<g transform="translate(0.000000,128.000000) scale(0.100000,-0.100000)"
fill="#000000" stroke="none">
<path d="M534 1160 c-5 -5 -22 -11 -37 -12 -15 -1 -27 -6 -27 -10 0 -4 -8 -8
-18 -8 -10 0 -23 -5 -30 -12 -7 -7 -12 -9 -12 -4 0 4 -7 0 -16 -8 -8 -9 -19
-14 -24 -11 -5 3 -10 1 -12 -3 -1 -4 -24 -23 -51 -41 -26 -18 -45 -36 -42 -42
7 -11 45 7 45 22 0 6 5 7 10 4 6 -3 17 1 25 9 9 8 22 13 30 10 8 -4 15 -1 15
5 0 6 11 11 25 11 14 0 25 5 25 12 0 6 7 3 16 -8 8 -10 13 -14 10 -8 -3 7 1
14 9 18 8 3 15 0 15 -6 0 -7 4 -7 13 -1 14 11 27 11 46 -1 10 -6 12 -5 7 2 -9
16 7 15 22 0 9 -9 12 -9 12 0 0 8 5 9 18 3 9 -5 43 -17 75 -26 34 -10 54 -21
50 -27 -3 -6 -1 -8 5 -4 6 3 13 2 17 -4 4 -6 10 -8 15 -5 5 3 14 -4 20 -15 6
-11 15 -18 20 -15 5 3 11 -4 15 -15 3 -11 10 -19 14 -17 10 3 61 -57 61 -72 0
-6 4 -11 8 -11 11 0 35 -51 27 -58 -3 -3 2 -14 12 -24 9 -10 13 -18 8 -18 -4
0 -3 -6 2 -12 5 -7 10 -24 11 -38 1 -14 4 -44 6 -67 3 -28 0 -43 -7 -43 -7 0
-5 -5 3 -10 8 -5 11 -10 5 -10 -5 0 -11 -14 -12 -32 -1 -17 -7 -36 -13 -42 -5
-5 -10 -15 -10 -20 0 -6 5 -4 10 4 5 8 10 10 10 4 0 -5 -9 -20 -19 -31 -11
-12 -17 -24 -14 -27 4 -3 0 -6 -7 -6 -7 0 -10 -3 -7 -6 4 -4 -3 -21 -15 -38
-22 -31 -108 -119 -108 -110 0 7 -63 -37 -72 -51 -5 -6 -8 -4 -8 5 0 13 -1 13
-10 0 -5 -8 -10 -12 -10 -7 0 4 -12 -1 -27 -10 -21 -14 -25 -15 -18 -3 8 13 7
13 -8 1 -21 -16 -222 -17 -222 -1 0 1 -9 3 -20 5 -16 3 -33 11 -73 31 -1 1 1
9 4 18 5 13 9 14 14 5 5 -6 26 -12 48 -13 22 -1 38 -4 36 -8 -5 -8 106 -5 121
3 6 3 23 6 38 7 16 1 35 9 43 17 9 8 20 12 25 9 6 -3 17 2 24 12 8 11 15 16
15 12 0 -8 21 8 63 47 12 11 36 40 52 65 17 25 33 47 38 48 4 2 4 8 1 13 -3 6
0 17 8 26 11 14 11 16 -2 8 -12 -7 -12 -5 1 11 9 10 15 31 14 47 -1 15 2 27 6
27 4 0 4 14 -1 30 -6 21 -5 30 3 30 8 0 7 3 -2 9 -10 6 -10 10 -1 16 8 5 6 13
-7 28 -12 14 -13 17 -3 12 12 -7 11 -3 -3 18 -9 15 -15 27 -12 27 9 0 -26 63
-48 88 -11 12 -18 22 -14 22 20 0 -79 78 -135 106 -74 37 -83 40 -72 22 5 -8
1 -8 -10 1 -12 10 -40 14 -89 13 -107 -3 -106 -3 -112 -13 -4 -5 -17 -9 -30
-9 -13 0 -27 -4 -30 -10 -3 -5 -15 -10 -27 -10 -18 0 -19 -2 -7 -17 13 -15 12
-15 -7 -5 -18 10 -23 8 -32 -12 -6 -13 -8 -26 -5 -29 8 -9 33 4 27 14 -3 5 6
9 20 9 14 0 27 4 30 9 3 5 24 8 46 7 22 0 40 2 40 6 0 10 73 -3 89 -16 12 -8
13 -8 7 2 -9 15 -14 17 101 -43 13 -7 20 -15 16 -18 -3 -4 0 -7 8 -7 13 0 70
-70 70 -87 0 -4 7 -11 14 -16 8 -4 12 -14 9 -22 -4 -8 -2 -15 4 -15 5 0 8 -10
8 -22 -1 -13 2 -29 7 -35 5 -7 7 -20 3 -28 -3 -8 0 -15 5 -15 7 0 4 -11 -6
-26 -9 -15 -12 -23 -5 -19 9 5 10 2 6 -13 -4 -11 -9 -31 -11 -43 -3 -12 -10
-26 -16 -29 -6 -4 -10 -10 -10 -14 1 -3 1 -10 1 -15 0 -15 -101 -121 -115
-121 -7 0 -18 -7 -25 -15 -7 -8 -16 -12 -21 -9 -5 3 -9 0 -9 -5 0 -6 -11 -11
-24 -11 -13 0 -27 -6 -29 -12 -4 -10 -6 -9 -6 1 -1 11 -4 11 -16 1 -12 -10
-15 -10 -15 1 0 12 -2 12 -9 0 -6 -9 -10 -10 -16 -2 -5 9 -10 9 -20 1 -9 -8
-14 -6 -20 7 -6 17 -7 17 -21 -1 -8 -11 -14 -14 -14 -8 0 7 -10 12 -22 12 -13
0 -32 7 -42 15 -15 11 -23 12 -33 3 -10 -8 -12 -8 -8 4 4 9 -4 19 -20 26 -14
6 -25 10 -25 7 0 -12 50 -55 64 -55 10 0 14 -4 11 -10 -5 -9 16 -15 38 -11 5
1 6 -3 2 -9 -3 -5 -16 -10 -28 -10 -21 0 -21 0 3 -24 14 -12 28 -19 31 -14 4
6 9 -2 13 -16 4 -17 11 -23 21 -20 8 4 15 1 15 -4 0 -10 40 -28 49 -23 2 2 7
-3 12 -11 5 -7 12 -13 16 -14 4 0 15 -3 23 -7 8 -3 24 -7 35 -9 11 -2 25 -10
32 -18 10 -12 12 -12 13 -1 0 10 3 11 13 2 8 -6 17 -8 20 -4 4 3 7 1 7 -7 0
-10 3 -10 14 -1 9 7 17 8 20 2 7 -10 24 -10 43 2 6 4 15 3 18 -3 5 -8 12 -7
23 2 13 11 14 11 7 -1 -6 -10 -4 -12 4 -7 7 5 27 10 44 13 18 3 34 9 37 13 3
5 17 10 30 12 14 2 36 10 50 18 14 8 28 13 32 12 3 -1 12 5 18 13 7 8 17 15
22 15 5 0 29 20 53 44 25 24 47 41 50 38 3 -3 5 -1 5 5 0 5 9 20 20 33 11 13
20 29 20 37 0 8 5 11 10 8 6 -3 10 3 10 14 0 12 4 21 8 21 7 0 26 47 38 93 1
4 3 8 4 10 12 13 19 210 8 224 -6 7 -7 17 -3 23 3 5 2 10 -2 10 -5 0 -9 8 -10
18 -1 9 -7 31 -14 47 -7 17 -12 33 -11 38 1 4 -3 7 -9 7 -6 0 -9 7 -6 15 4 8
1 17 -5 21 -7 5 -8 2 -3 -6 5 -9 4 -11 -3 -6 -7 4 -12 13 -12 19 0 7 -16 30
-35 52 -19 22 -35 43 -35 48 0 4 -5 7 -10 7 -6 0 -23 12 -39 26 -35 31 -98 64
-161 84 -25 8 -48 19 -52 25 -5 7 -8 7 -8 -1 0 -6 -7 -11 -15 -11 -8 0 -15 3
-15 7 0 4 -34 7 -75 6 -44 0 -75 -5 -75 -11 0 -5 -4 -4 -8 2 -5 9 -11 10 -18
3z m-214 -880 c0 -5 -12 -10 -27 -10 -22 0 -25 2 -13 10 20 13 40 13 40 0z"/>
<path d="M344 932 c3 -6 2 -13 -4 -17 -5 -3 -10 -1 -10 6 0 8 -4 8 -15 -1 -9
-7 -18 -10 -21 -7 -4 3 -13 -1 -21 -9 -8 -8 -19 -12 -24 -9 -5 4 -9 1 -9 -5 0
-6 -4 -8 -10 -5 -5 3 -10 1 -10 -4 0 -6 -4 -11 -9 -11 -13 0 -70 -58 -63 -64
3 -3 -3 -8 -12 -12 -9 -3 -14 -10 -11 -14 3 -5 0 -14 -7 -22 -13 -13 -21 -44
-22 -85 -1 -13 -4 -23 -8 -23 -5 0 -8 -5 -8 -11 0 -5 4 -8 8 -5 11 6 9 -25 -3
-43 -5 -10 -4 -12 3 -7 7 4 12 2 12 -3 0 -19 2 -25 19 -56 31 -57 46 -75 59
-75 7 0 11 -4 8 -9 -3 -5 2 -15 11 -22 14 -12 16 -12 9 1 -4 8 1 6 11 -5 10
-11 25 -21 33 -23 8 -2 17 -8 18 -13 2 -5 8 -6 14 -3 6 4 14 0 19 -7 7 -11 9
-11 9 -1 0 9 5 10 18 4 43 -22 156 4 205 46 9 8 17 12 17 7 0 -4 16 12 34 36
19 24 32 46 29 49 -3 3 -8 -1 -10 -8 -3 -6 -9 -10 -14 -6 -5 3 -9 -2 -9 -11 0
-9 -4 -13 -10 -10 -5 3 -10 2 -10 -3 0 -5 -15 -15 -32 -23 -18 -7 -36 -18 -40
-23 -5 -7 -8 -7 -8 -1 0 6 -23 9 -52 8 -33 -1 -56 4 -65 13 -8 8 -19 12 -24 9
-5 -3 -23 9 -41 27 -36 36 -86 114 -66 102 10 -6 10 -4 2 7 -19 24 -3 166 17
153 5 -3 9 1 9 9 0 16 46 66 79 85 19 11 22 11 16 0 -4 -8 -1 -7 7 2 7 8 27
15 43 15 17 0 33 4 37 10 5 6 8 5 8 -2 0 -7 5 -13 11 -13 5 0 7 4 4 10 -3 6 1
7 9 4 9 -3 14 -9 11 -14 -2 -4 7 -5 22 -2 19 4 24 2 18 -8 -5 -8 -4 -11 3 -6
6 3 13 2 17 -4 4 -6 11 -8 16 -5 5 4 9 -1 9 -9 0 -9 6 -15 13 -13 6 1 11 -3
10 -10 -1 -6 4 -13 11 -16 10 -4 12 0 9 14 -3 10 -9 19 -13 19 -5 0 -12 9 -15
21 -5 14 -12 18 -23 14 -9 -3 -13 -3 -10 1 8 8 -14 34 -24 27 -5 -2 -8 0 -8 5
0 5 -10 13 -22 17 -31 10 -37 12 -43 15 -3 1 -8 3 -12 4 -5 1 -14 5 -20 9 -8
5 -13 3 -13 -4 0 -8 -4 -8 -15 1 -8 7 -15 9 -15 6 0 -4 -10 -2 -21 5 -13 7
-19 7 -15 1z"/>
<path d="M186 919 c2 -4 -1 -9 -8 -11 -7 -3 -5 -7 6 -11 10 -4 15 -3 11 3 -3
6 1 10 9 10 9 0 16 4 16 9 0 6 -9 9 -19 8 -11 0 -18 -4 -15 -8z"/>
</g>
</svg>
